<svg xmlns="http://www.w3.org/2000/svg" width="267" height="267" viewBox="0 0 267 267">
  <g id="transmission" transform="translate(-651 -460)">
    <g id="Ellipse_79" data-name="Ellipse 79" transform="translate(651 460)" fill="#caa900" stroke="#242424" stroke-width="15">
      <circle cx="133.5" cy="133.5" r="133.5" stroke="none"/>
      <circle cx="133.5" cy="133.5" r="126" fill="none"/>
    </g>
    <path id="transmission-2" data-name="transmission" d="M74.212,101.721V73.678h33.9a16.035,16.035,0,0,0,16.017-16.017v-22.7a17.886,17.886,0,1,0-10.678,0v22.7A5.345,5.345,0,0,1,108.114,63h-33.9V34.957a17.886,17.886,0,1,0-10.678,0V63H28.563a5.345,5.345,0,0,1-5.339-5.339v-22.7a17.886,17.886,0,1,0-10.678,0v22.7a15.951,15.951,0,0,0,4.092,10.678,15.951,15.951,0,0,0-4.092,10.678v22.7a17.886,17.886,0,1,0,10.678,0v-22.7a5.345,5.345,0,0,1,5.339-5.339h34.97v28.043a17.886,17.886,0,1,0,10.678,0Zm44.58-91.043a7.208,7.208,0,1,1-7.208,7.208A7.216,7.216,0,0,1,118.792,10.678Zm-49.919,0a7.208,7.208,0,1,1-7.208,7.208A7.216,7.216,0,0,1,68.873,10.678Zm-50.987,0a7.208,7.208,0,1,1-7.208,7.208A7.216,7.216,0,0,1,17.886,10.678Zm0,115.322a7.208,7.208,0,1,1,7.208-7.208A7.216,7.216,0,0,1,17.886,126Zm50.987,0a7.208,7.208,0,1,1,7.208-7.208A7.216,7.216,0,0,1,68.873,126Zm67.8-20.422a14.832,14.832,0,0,0-14.816-14.816H104.11v45.915h10.678V120.394h1.421l8.293,16.284h11.983L127.6,119.236A14.838,14.838,0,0,0,136.678,105.578Zm-21.89-4.138h7.074a4.138,4.138,0,0,1,0,8.275h-7.074Z" transform="translate(716.132 525.132)" fill="#fff"/>
  </g>
</svg>
